<svg id="Capa_1" data-name="Capa 1" xmlns="http://www.w3.org/2000/svg" viewBox="0 0 200 199.99"><defs><style>.cls-1{fill:#fff;}</style></defs><title>Vector Smart Object4</title><path class="cls-1" d="M47.62,104.77h9.54v9.53h9.52v9.53H19.06V114.3h9.52V95.24H47.64v9.53Zm123.82,85.7H181V181h-9.51ZM57.15,104.77h9.53V95.24H57.15Zm133.32,85.7H200V181h-9.53ZM76.21,200h19v-9.52h-19Zm85.7,0v-9.52h-9.53V200Zm-38.09,0h9.52V180.94h-9.52ZM47.62,76.19v9.53H76.19V76.19Zm-9.51,9.52V76.19H19.05v19h9.53V85.71Zm28.57-19H0V0H66.68ZM57.15,9.53H9.53V57.14H57.15ZM19.05,181H47.62V152.38H19.05Zm95.24-9.53V181h9.54v-9.53ZM47.62,19.06H19.06V47.62H47.62ZM200,0V66.67H133.33V0Zm-9.52,9.52H142.86V57.14h47.61ZM0,133.32H66.67V200H0Zm9.53,57.15H57.16V142.85H9.53Zm0-114.28H0v47.63H9.53Zm123.8,47.62v9.51h9.53v-9.51ZM104.76,161.9v-9.52H95.24v9.53h-19V181h19v9.52h9.52V171.44h9.53v-9.53h-9.53ZM76.21,38.1h19V28.56h-19Zm76.17,76.19h19.07v9.53H181V95.25h-9.52V76.19h-9.54v28.58H133.36v9.53h9.52v9.53h9.53V114.3h0Zm9.53,28.56h-9.53v-9.53h-9.53v19.06H114.29v9.53h19.06V181h9.53v9.52h9.52V171.44h38.09v-9.53H161.92V142.85Zm0,0h9.54v-19h-9.54Zm-76.19,0v-9.53h9.51v-9.51h9.52v-9.53h9.54V95.22h28.56V76.16h-9.53v9.53H123.8V47.6h-9.53V28.54h9.53V0h-9.53V19.05h-9.52V0H76.18V19.05h9.53V9.53h9.51v19h9.53V57.14h9.52v9.52h-9.52v19H95.22v-19H85.71V57.14H76.18v19h9.53v9.53H76.18V114.3h9.53V95.24h9.51V114.3H85.71v9.53H76.18v28.55h19v-9.53Zm104.75,9.53v-9.53h-19v9.53ZM180.94,19.06H152.38V47.62h28.56ZM104.76,142.85h19.07v-9.53h-9.54v-9.51h-9.54v19Zm19.06-19v-9.53h-9.54v9.53Zm57.12-38.1H200V76.19H180.94Zm9.53,76.19H200v-9.52h-9.53Zm0-57.13H200V95.24h-9.53ZM104.76,57.14H95.24v9.53h9.52Z"/></svg>