<svg id="Capa_1" data-name="Capa 1" xmlns="http://www.w3.org/2000/svg" viewBox="0 0 62.5 67"><defs><style>.cls-1{fill:#e81348;}</style></defs><title>Vector Smart Object8</title><path class="cls-1" d="M4.25,35h39.9L33.86,45.48a2.11,2.11,0,0,0,0,2.92,2,2,0,0,0,1.41.63,2,2,0,0,0,1.42-.56L49.5,35.67a2,2,0,0,0,0-2.82l-.6-.6a2.14,2.14,0,0,0-.52-.52L36.69,20a2,2,0,0,0-2.83,0,1.78,1.78,0,0,0,0,2.64L42.37,31H4.25a2,2,0,0,0,0,4Z" transform="translate(-2.25 0)"/><path class="cls-1" d="M64.75,59.28V9.54C64.75,4.75,60.84,0,56,0H30c-4.74,0-9.25,4.58-9.25,9.54V21.38a2,2,0,0,0,4,0V9.54C24.75,6.79,27.47,4,30,4H56c2.65,0,4.75,2.94,4.75,5.54V59.28c0,2.66-2.2,3.72-4.75,3.72H30c-2.36,0-5.25-.89-5.25-3.72V47.38a2,2,0,1,0-4,0v11.9C20.75,64,24.93,67,30,67H56C61.19,67,64.75,63.82,64.75,59.28Z" transform="translate(-2.25 0)"/></svg>